<?xml version="1.0"?>
<svg xmlns="http://www.w3.org/2000/svg" viewBox="0 0 128 128">
    <rect stroke="#3c3836" stroke-width="3%" fill="#f2e5bc" rx="20%" height="100%" width="100%" />
    <g transform="translate(0, 9)">
        <path
            fill="#3c3836"
            d="M64 99.23L64 99.23Q55.02 99.23 47.68 96.61Q40.33 93.99 35.02 89.20Q29.72 84.41 26.84 77.79Q23.96 71.17 23.96 63.18L23.96 63.18Q23.96 56.87 25.81 51.33L25.81 51.33Q24.09 46.13 23.21 41.43Q22.33 36.72 22.33 32.04L22.33 32.04Q22.33 23.96 24.65 19.07Q26.97 14.17 31.14 14.17L31.14 14.17Q33.63 14.17 36.79 16.10Q39.94 18.03 43.36 21.43Q46.77 24.82 50.00 29.20L50.00 29.20Q53.26 28.26 56.78 27.81Q60.31 27.36 64 27.36L64 27.36Q67.69 27.36 71.22 27.81Q74.74 28.26 78.00 29.20L78.00 29.20Q81.23 24.82 84.64 21.43Q88.06 18.03 91.24 16.10Q94.41 14.17 96.86 14.17L96.86 14.17Q101.03 14.17 103.35 19.07Q105.67 23.96 105.67 32.04L105.67 32.04Q105.67 36.72 104.81 41.43Q103.95 46.13 102.19 51.33L102.19 51.33Q104.04 56.87 104.04 63.18L104.04 63.18Q104.04 71.17 101.16 77.79Q98.28 84.41 92.98 89.20Q87.67 93.99 80.32 96.61Q72.98 99.23 64 99.23ZM22.12 85.91L22.12 85.91L19.45 83.76Q21.21 81.61 23.96 79.89Q26.71 78.18 29.91 77.12Q33.11 76.07 36.21 75.94L36.21 75.94L36.21 79.38Q33.63 79.51 30.92 80.39Q28.22 81.27 25.90 82.71Q23.58 84.15 22.12 85.91ZM16.44 74.18L16.44 74.18L15.03 71.00Q17.73 69.76 21.21 69.07Q24.69 68.38 27.96 68.38L27.96 68.38Q29.59 68.38 31.07 68.58Q32.55 68.77 33.89 69.16L33.89 69.16L32.98 72.33Q31.82 72.03 30.69 71.90Q29.55 71.78 28.17 71.78L28.17 71.78Q25.12 71.78 21.92 72.42Q18.72 73.06 16.44 74.18ZM33.16 62.02L31.87 65.20Q25.85 62.84 15.54 62.84L15.54 62.84L15.54 59.40Q20.96 59.40 25.38 60.07Q29.80 60.74 33.16 62.02L33.16 62.02ZM64 83.76L64 83.76Q60.39 83.76 57.51 81.61Q54.63 79.47 52.79 75.43L52.79 75.43L55.75 73.88Q57.17 76.97 59.32 78.65Q61.47 80.32 64 80.32L64 80.32Q66.53 80.32 68.68 78.65Q70.83 76.97 72.25 73.88L72.25 73.88L75.21 75.43Q73.37 79.47 70.49 81.61Q67.61 83.76 64 83.76ZM49.48 65.46L49.48 65.46Q42.26 63.87 38.27 60.43Q34.27 57.00 34.27 52.44L34.27 52.44Q34.27 49.52 36.12 47.59Q37.97 45.66 40.72 45.66L40.72 45.66Q42.65 45.66 44.97 46.82L44.97 46.82Q46.26 45.06 47.87 44.05Q49.48 43.04 51.24 43.04L51.24 43.04Q54.03 43.04 55.90 45.29Q57.77 47.55 57.77 50.85L57.77 50.85Q57.77 57.73 49.48 65.46ZM55.45 76.54L55.45 76.54Q52.96 76.54 50.79 75.73Q48.62 74.91 46.82 73.32L46.82 73.32L49.05 70.74Q50.30 71.86 51.99 72.48Q53.69 73.11 55.45 73.11L55.45 73.11Q57.99 73.11 60.28 71.65Q62.58 70.19 62.58 67.57L62.58 67.57L65.42 67.57Q65.42 70.19 67.74 71.65Q70.06 73.11 72.55 73.11L72.55 73.11Q74.31 73.11 76.01 72.48Q77.70 71.86 78.95 70.74L78.95 70.74L81.18 73.32Q79.38 74.91 77.21 75.73Q75.04 76.54 72.55 76.54L72.55 76.54Q70.10 76.54 67.74 75.51Q65.37 74.48 64 72.85L64 72.85Q62.63 74.48 60.26 75.51Q57.90 76.54 55.45 76.54ZM64 70.06L64 70.06Q62.28 70.06 60.67 68.70Q59.06 67.35 59.06 66.02L59.06 66.02Q59.06 64.86 60.39 64.24Q61.72 63.61 64 63.61L64 63.61Q66.28 63.61 67.61 64.24Q68.94 64.86 68.94 66.02L68.94 66.02Q68.94 67.35 67.35 68.70Q65.76 70.06 64 70.06ZM33.37 44.54L33.37 44.54Q32.34 41.88 31.82 38.25Q31.31 34.62 31.31 31.48L31.31 31.48Q31.31 28.77 31.69 26.95Q32.08 25.12 32.85 25.12L32.85 25.12Q33.59 25.12 35.20 26.60Q36.81 28.09 38.87 30.51Q40.93 32.94 42.91 35.73L42.91 35.73Q40.50 37.06 37.88 39.60Q35.26 42.13 33.37 44.54ZM64 95.79L64 95.79Q75.04 95.79 83.27 91.67Q91.49 87.54 96.05 80.20Q100.60 72.85 100.60 63.18L100.60 63.18Q100.60 56.78 98.58 51.33L98.58 51.33Q99.83 47.80 100.62 44.58Q101.42 41.36 101.83 38.25Q102.23 35.13 102.23 32.04L102.23 32.04Q102.23 25.51 100.71 21.56Q99.18 17.60 96.86 17.60L96.86 17.60Q94.93 17.60 91.94 19.69Q88.96 21.77 85.67 25.29Q82.39 28.82 79.38 33.20L79.38 33.20Q75.86 32.00 72.01 31.39Q68.17 30.79 64 30.79L64 30.79Q60.18 30.79 56.48 31.35Q52.79 31.91 48.62 33.20L48.62 33.20Q45.66 28.82 42.33 25.29Q39.00 21.77 36.06 19.69Q33.11 17.60 31.14 17.60L31.14 17.60Q28.82 17.60 27.29 21.56Q25.77 25.51 25.77 32.04L25.77 32.04Q25.77 35.13 26.17 38.25Q26.58 41.36 27.40 44.58Q28.22 47.80 29.42 51.33L29.42 51.33Q27.40 56.78 27.40 63.18L27.40 63.18Q27.40 72.85 31.95 80.20Q36.51 87.54 44.73 91.67Q52.96 95.79 64 95.79ZM108.55 83.76L105.88 85.91Q104.47 84.15 102.13 82.71Q99.78 81.27 97.10 80.39Q94.41 79.51 91.79 79.38L91.79 79.38L91.79 75.94Q94.89 76.07 98.09 77.12Q101.29 78.18 104.04 79.89Q106.79 81.61 108.55 83.76L108.55 83.76ZM58.29 41.49L58.29 41.49Q56.83 41.49 55.02 39.06Q53.22 36.64 51.24 29.93L51.24 29.93L61.81 28.30Q61.90 29.29 61.94 30.23Q61.98 31.18 61.98 32.08L61.98 32.08Q61.98 36.42 61.01 38.96Q60.05 41.49 58.29 41.49ZM78.52 65.46L78.52 65.46Q70.23 57.73 70.23 50.85L70.23 50.85Q70.23 47.55 72.10 45.29Q73.97 43.04 76.76 43.04L76.76 43.04Q80.37 43.04 83.03 46.82L83.03 46.82Q85.35 45.66 87.28 45.66L87.28 45.66Q90.08 45.66 91.90 47.59Q93.73 49.52 93.73 52.44L93.73 52.44Q93.73 57.00 89.73 60.43Q85.74 63.87 78.52 65.46ZM112.97 71.00L111.56 74.18Q109.32 73.06 106.10 72.42Q102.88 71.78 99.83 71.78L99.83 71.78Q98.45 71.78 97.31 71.90Q96.18 72.03 95.02 72.33L95.02 72.33L94.11 69.16Q95.49 68.77 96.95 68.58Q98.41 68.38 100.04 68.38L100.04 68.38Q103.31 68.38 106.79 69.07Q110.27 69.76 112.97 71.00L112.97 71.00ZM69.71 41.49L69.71 41.49Q68.00 41.49 67.01 38.96Q66.02 36.42 66.02 32.08L66.02 32.08Q66.02 31.18 66.06 30.23Q66.10 29.29 66.19 28.30L66.19 28.30L76.76 29.93Q74.78 36.64 72.98 39.06Q71.17 41.49 69.71 41.49ZM96.13 65.20L96.13 65.20L94.84 62.02Q98.20 60.74 102.62 60.07Q107.04 59.40 112.46 59.40L112.46 59.40L112.46 62.84Q102.15 62.84 96.13 65.20ZM94.63 44.54L94.63 44.54Q92.74 42.13 90.12 39.60Q87.50 37.06 85.09 35.73L85.09 35.73Q87.07 32.94 89.13 30.51Q91.19 28.09 92.83 26.60Q94.46 25.12 95.15 25.12L95.15 25.12Q95.92 25.12 96.31 26.95Q96.69 28.77 96.69 31.48L96.69 31.48Q96.69 34.62 96.18 38.25Q95.66 41.88 94.63 44.54Z" />
    </g>
</svg>